<svg width="553" height="301" fill="none" xmlns="http://www.w3.org/2000/svg"><path fill-rule="evenodd" clip-rule="evenodd" d="M526.44 123.31c.1 1 1.04 1.73 2.1 1.64 1.06-.1 1.84-.99 1.74-1.99-.1-1-1.04-1.73-2.1-1.63-1.06.1-1.84.98-1.74 1.98Zm1.08-9.58c-1.06.1-2-.64-2.1-1.64-.1-1 .68-1.88 1.74-1.98 1.06-.1 2 .64 2.1 1.64.1 1-.68 1.89-1.74 1.98Zm-3.13-12.85c.1 1 1.04 1.73 2.1 1.63 1.06-.1 1.84-.98 1.74-1.98-.1-1-1.04-1.73-2.1-1.64-1.06.1-1.84.99-1.74 1.99Zm1.08-9.58c-1.06.1-2-.64-2.1-1.64-.1-1 .67-1.89 1.74-1.98 1.05-.1 2 .64 2.1 1.63.1 1-.68 1.9-1.74 1.99Zm-3.13-12.86c.1 1 1.04 1.73 2.1 1.64a1.85 1.85 0 0 0 1.74-1.98c-.1-1-1.04-1.74-2.1-1.64-1.06.1-1.84.98-1.74 1.98Zm-1.02-11.21c.1 1 1.04 1.73 2.1 1.64a1.85 1.85 0 0 0 1.73-1.99c-.1-1-1.04-1.73-2.1-1.63-1.06.1-1.83.98-1.73 1.98Zm-9.12 2.66c-1.06.1-2-.64-2.1-1.64-.1-1 .68-1.88 1.74-1.98 1.06-.1 2 .64 2.1 1.64.1 1-.68 1.88-1.74 1.98Zm-1.07 9.58c.1 1 1.04 1.73 2.1 1.64a1.85 1.85 0 0 0 1.74-1.99c-.1-1-1.05-1.73-2.1-1.63-1.06.1-1.84.98-1.74 1.98Zm3.12 12.85c-1.06.1-2-.63-2.1-1.63-.1-1 .68-1.89 1.74-1.99 1.06-.1 2 .64 2.1 1.64.1 1-.68 1.89-1.74 1.98Zm-1.08 9.58c.1 1 1.05 1.73 2.1 1.64a1.85 1.85 0 0 0 1.74-1.98c-.1-1-1.04-1.74-2.1-1.64-1.06.1-1.83.98-1.74 1.98Zm3.13 12.85c-1.06.1-2-.63-2.1-1.63-.1-1 .68-1.89 1.74-1.98 1.06-.1 2 .63 2.1 1.63.1 1-.68 1.89-1.74 1.98Zm-1.07 9.59c.1 1 1.04 1.73 2.1 1.63a1.85 1.85 0 0 0 1.74-1.98 1.9 1.9 0 0 0-2.1-1.64c-1.07.1-1.84.99-1.74 1.99Zm-14.25-53.42c-1.06.1-2-.64-2.1-1.64-.1-1 .68-1.89 1.74-1.98 1.06-.1 2 .63 2.1 1.63.1 1-.68 1.89-1.74 1.99Zm-1.07 9.57c.1 1 1.04 1.74 2.1 1.64a1.85 1.85 0 0 0 1.74-1.98c-.1-1-1.04-1.73-2.1-1.64-1.06.1-1.84.98-1.74 1.98Zm3.13 12.86c-1.06.1-2-.64-2.1-1.64-.1-1 .67-1.89 1.73-1.98 1.06-.1 2 .64 2.1 1.63.1 1-.67 1.9-1.73 1.99Zm-1.08 9.58c.1 1 1.04 1.73 2.1 1.63 1.06-.1 1.84-.98 1.74-1.98-.1-1-1.04-1.73-2.1-1.63-1.06.1-1.84.98-1.74 1.98Zm3.13 12.85c-1.06.1-2-.64-2.1-1.64-.1-1 .67-1.88 1.73-1.98 1.06-.1 2 .64 2.1 1.64.1 1-.67 1.89-1.73 1.98Zm-1.08 9.58c.1 1 1.04 1.73 2.1 1.64 1.06-.1 1.84-.98 1.74-1.98-.1-1-1.04-1.74-2.1-1.64-1.06.1-1.84.98-1.74 1.98Zm-14.24-53.42c-1.06.1-2-.64-2.1-1.64-.1-1 .68-1.88 1.74-1.98 1.06-.1 2 .64 2.1 1.64.1 1-.68 1.88-1.74 1.98Zm-1.08 9.58c.1 1 1.04 1.73 2.1 1.64a1.85 1.85 0 0 0 1.74-1.99c-.1-1-1.04-1.73-2.1-1.63-1.06.1-1.84.98-1.74 1.98Zm3.13 12.85c-1.06.1-2-.63-2.1-1.63-.1-1 .68-1.89 1.74-1.99 1.06-.1 2 .64 2.1 1.64.1 1-.68 1.89-1.74 1.98Zm-1.08 9.58a1.9 1.9 0 0 0 2.1 1.64 1.85 1.85 0 0 0 1.74-1.98c-.1-1-1.04-1.73-2.1-1.64-1.06.1-1.84.98-1.74 1.98Zm3.13 12.86c-1.06.1-2-.64-2.1-1.64-.1-1 .68-1.89 1.74-1.98 1.06-.1 2 .63 2.1 1.63.1 1-.68 1.89-1.74 1.99Zm-1.08 9.58c.1 1 1.04 1.73 2.1 1.63a1.85 1.85 0 0 0 1.74-1.98c-.1-1-1.04-1.73-2.1-1.64-1.06.1-1.84.99-1.74 1.98Z" fill="url(#a)"/><path d="M162.93 19c-1.25-5.41-7.15-9.26-12.63-8.35-4.35.28-8.55 7.37-7.66 12.85.9 5.49 6.97 9.5 12.38 8.25 5.42-1.23 9.18-7.31 7.91-12.74Z" fill="url(#b)" opacity=".65"/><g opacity=".65"><path d="m398.37 176.28.49-.09-.5.1c4.54 25.26-6.69 52.04-26.04 69-19.34 16.97-45.77 24.65-71.54 24.03a300.57 300.57 0 0 1-46.97-5.16c-16.81-3.23-33.1-8.04-44.09-14.7-13.01-7.87-21.84-14.06-29.2-21.02-7.35-6.95-13.25-14.68-20.39-25.64-14.04-21.58-20.42-49.77-19.2-74h.01l.2-6.31c.01-.52.08-1.03.2-1.52 5.75-23.1 18.05-45.49 38.19-57.94 20.37-12.6 49.52-12.3 66.18 4.75 6.06 6.2 10.07 13.93 14.02 21.82l.55 1.1c3.76 7.51 7.56 15.1 13.12 21.43a49.62 49.62 0 0 0 31.01 16.35c7.07.85 14.15.16 21.18-.6l.97-.1c6.72-.72 13.4-1.44 20.05-.9 25.53 2.1 47.23 24.13 51.76 49.4Z" fill="url(#c)" stroke="#D9E6FB"/><path d="M424.21 267.12a12.46 12.46 0 1 0-24.66-3.58 12.46 12.46 0 0 0 24.66 3.58Z" fill="url(#d)"/><path opacity=".8" d="M402.38 271.3a31.15 31.15 0 1 0 58.09-22.52 31.15 31.15 0 0 0-58.09 22.52Z" fill="url(#e)"/></g><path d="M324.4 169.44c.24 24.88-5.19 43.9-16.27 57.07-11.08 13.17-26.25 19.84-45.51 20.01-19.37.2-34.76-6.19-46.18-19.13-11.42-12.94-17.25-31.85-17.5-56.73l-.41-43.75c-.25-24.78 5.18-43.8 16.27-57.07 11.08-13.27 26.3-19.98 45.66-20.15 19.27-.18 34.62 6.24 46.05 19.27C317.94 82 323.76 100.9 324 125.68l.4 43.76Zm-32.39-48.35c-.16-15.67-2.88-27.24-8.18-34.7-5.3-7.48-13-11.17-23.12-11.08-10.08.1-17.69 3.94-22.82 11.51-5.14 7.58-7.65 19.2-7.52 34.86l.5 53.17c.15 15.75 2.91 27.38 8.29 34.9 5.37 7.52 13.1 11.23 23.17 11.13 10.07-.1 17.65-3.93 22.75-11.5 5.1-7.58 7.57-19.29 7.42-35.13L292 121.1Z" fill="#DCE9FA"/><path d="M342.8 169.26c.24 24.88-5.19 43.9-16.28 57.08-11.08 13.17-26.25 19.84-45.51 20.01-19.36.19-34.75-6.2-46.17-19.14-11.42-12.95-17.25-31.86-17.48-56.74l-.42-43.75c-.24-24.79 5.18-43.81 16.27-57.08 11.09-13.26 26.31-19.98 45.67-20.15 19.26-.18 34.61 6.25 46.04 19.27s17.24 31.94 17.43 56.75l.44 43.75Zm-32.4-48.34c-.15-15.67-2.89-27.23-8.21-34.68-5.33-7.46-13.04-11.15-23.12-11.07-10.08.1-17.7 3.94-22.83 11.5-5.13 7.58-7.63 19.2-7.48 34.87l.51 53.16c.16 15.76 2.92 27.4 8.29 34.91 5.37 7.52 13.1 11.23 23.17 11.14 10.07-.1 17.65-3.94 22.75-11.51 5.1-7.58 7.56-19.28 7.41-35.13l-.48-53.2Z" fill="url(#f)"/><path d="M307.32 201.41c.05.1-5.44 2.66-12.24 5.72-6.8 3.06-12.37 5.46-12.4 5.37-.05-.1 5.43-2.66 12.27-5.72 6.85-3.06 12.33-5.46 12.37-5.37ZM310.92 186.6c.04.1-4.49 2.22-10.11 4.75-5.63 2.53-10.23 4.5-10.27 4.41-.04-.1 4.48-2.22 10.11-4.75 5.64-2.53 10.23-4.5 10.27-4.4ZM312.57 169.97c.05.09-4.48 2.21-10.11 4.74-5.63 2.53-10.22 4.51-10.27 4.42-.04-.1 4.48-2.23 10.12-4.76 5.63-2.53 10.22-4.53 10.26-4.4ZM314.23 153.32c.04.1-4.48 2.22-10.12 4.75-5.63 2.53-10.22 4.5-10.26 4.41-.05-.1 4.48-2.22 10.11-4.75 5.63-2.52 10.21-4.51 10.27-4.41ZM315.89 136.68c.04.1-4.49 2.23-10.11 4.75-5.63 2.53-10.23 4.5-10.27 4.41-.04-.1 4.49-2.22 10.11-4.75 5.63-2.54 10.23-4.49 10.27-4.4ZM312.57 121.86c.05.1-4.48 2.23-10.11 4.76-5.63 2.53-10.22 4.5-10.27 4.4-.04-.09 4.48-2.22 10.12-4.75 5.63-2.53 10.22-4.5 10.26-4.4ZM312.57 105.91c.05.1-4.48 2.23-10.11 4.75-5.63 2.53-10.22 4.5-10.27 4.41-.04-.1 4.48-2.22 10.12-4.75 5.63-2.53 10.22-4.5 10.26-4.41ZM310.92 90.9c.04.08-4.49 2.2-10.11 4.74-5.63 2.53-10.23 4.5-10.27 4.41-.04-.1 4.48-2.22 10.11-4.75 5.64-2.53 10.23-4.5 10.27-4.4ZM296.65 80.42a61.73 61.73 0 0 1-6.12 2.97 61.82 61.82 0 0 1-6.28 2.61c1.99-1.1 4.03-2.1 6.12-2.96a61.7 61.7 0 0 1 6.28-2.62ZM289.02 74.01a63.75 63.75 0 0 1-6.12 2.96 61.77 61.77 0 0 1-6.27 2.61 61.75 61.75 0 0 1 6.11-2.94 61.82 61.82 0 0 1 6.28-2.63Z" fill="#FF725E"/><path d="M217.04 129.32c.03.1-4.24 1.79-9.54 3.78-5.3 2-9.65 3.5-9.65 3.44 0-.07 4.24-1.8 9.54-3.8 5.3-1.99 9.61-3.52 9.65-3.42ZM218.08 146.6c.04.1-4.23 1.8-9.54 3.8-5.31 1.99-9.63 3.52-9.67 3.42-.03-.09 4.24-1.79 9.54-3.78 5.3-2 9.67-3.53 9.67-3.43ZM219.16 163.9c.03.09-4.23 1.79-9.54 3.78-5.31 2-9.6 3.53-9.67 3.43-.07-.1 4.23-1.79 9.54-3.78 5.3-2 9.63-3.54 9.67-3.44ZM220.25 181.19c.04.09-4.23 1.79-9.54 3.78-5.31 2-9.64 3.53-9.68 3.43-.03-.1 4.24-1.79 9.55-3.78 5.3-2 9.6-3.54 9.67-3.44ZM221.28 198.47c-.2.14-.43.25-.66.33-.43.19-1.07.44-1.85.76-1.58.62-3.75 1.44-6.16 2.37-2.42.94-4.61 1.7-6.2 2.27l-1.9.65c-.23.1-.48.16-.72.19.2-.14.43-.25.66-.33.43-.18 1.06-.44 1.85-.72 1.57-.63 3.75-1.44 6.16-2.38a197.5 197.5 0 0 1 8.1-2.91c.23-.11.47-.2.72-.23ZM226.22 214.29c-.7.37-1.42.7-2.17.96a316.77 316.77 0 0 1-10.79 4.05c-.74.3-1.5.54-2.28.72.7-.37 1.42-.7 2.17-.96a271.38 271.38 0 0 1 10.79-4.05c.73-.3 1.5-.55 2.28-.72ZM236.79 228.8c-.62.34-1.27.63-1.95.87a212.14 212.14 0 0 1-9.6 3.6c-.67.27-1.35.48-2.04.63.62-.35 1.27-.64 1.94-.87 1.22-.5 2.9-1.15 4.78-1.86 1.9-.7 3.62-1.32 4.83-1.75.66-.27 1.34-.48 2.04-.63ZM254.35 238.3c-.62.35-1.27.64-1.94.88-1.22.5-2.9 1.15-4.79 1.85l-4.82 1.76c-.66.27-1.34.47-2.04.62a12.5 12.5 0 0 1 1.94-.87 207.42 207.42 0 0 1 9.61-3.61c.66-.27 1.34-.48 2.04-.62ZM217.85 108.36c.04.1-4.23 1.8-9.53 3.79-5.3 1.99-9.64 3.53-9.68 3.43-.03-.1 4.24-1.8 9.55-3.79 5.3-2 9.63-3.52 9.66-3.43ZM223.14 86.8c.04.1-4.6 1.92-10.34 4.09s-10.45 3.83-10.48 3.74c-.04-.1 4.6-1.93 10.34-4.1 5.76-2.15 10.48-3.83 10.48-3.73ZM237.06 65.46c.04.1-5.84 2.4-13.12 5.13-7.28 2.74-13.21 4.88-13.25 4.78-.03-.1 5.84-2.4 13.12-5.13 7.28-2.74 13.22-4.87 13.25-4.78Z" fill="#0062F4"/><path d="m339.68 201.62-.3-.1-.87-.34c-.38-.14-.88-.25-1.44-.4-.68-.13-1.36-.22-2.05-.26-3.08-.2-7.7.93-12.18 4.28a34.64 34.64 0 0 0-6.45 6.38c-2.07 2.54-4.1 5.4-6.4 8.3a38 38 0 0 1-8.33 8.06 30.04 30.04 0 0 1-23.94 4.26 58.78 58.78 0 0 1-10.88-4.04c-3.36-1.55-6.5-3.13-9.5-4.44a50.43 50.43 0 0 0-8.62-2.91 31.87 31.87 0 0 0-7.44-.86c-1.89.02-3.77.27-5.6.76a20.4 20.4 0 0 0-3.34 1.31l-.82.43c-.09.06-.19.1-.29.14l.27-.17.8-.47a18.4 18.4 0 0 1 3.34-1.38 22.2 22.2 0 0 1 5.63-.83c2.53-.03 5.05.24 7.51.8 2.97.7 5.87 1.67 8.67 2.9 3.02 1.3 6.16 2.89 9.51 4.42a58.34 58.34 0 0 0 10.84 3.98c4.02 1 8.2 1.15 12.28.41 4.07-.73 7.95-2.3 11.38-4.6a37.67 37.67 0 0 0 8.27-7.99c2.3-2.89 4.33-5.73 6.44-8.27a34.84 34.84 0 0 1 6.5-6.4c4.53-3.35 9.22-4.45 12.34-4.2a15 15 0 0 1 2.07.28c.58.18 1.08.3 1.45.45l.86.37.3.13ZM344.24 153.43c0 .04-.51.1-1.4.4a14.06 14.06 0 0 0-3.5 1.87c-1.37.96-2.89 2.3-4.63 3.7a34.14 34.14 0 0 1-18.96 7.12c-.85.06-1.62.04-2.3.05-.67.02-1.24-.04-1.71-.07l-1.1-.11c-.12 0-.25-.03-.36-.07h.37l1.1.04h1.7c.68-.04 1.45 0 2.27-.12a35.67 35.67 0 0 0 18.78-7.13c1.76-1.36 3.28-2.7 4.7-3.61a13 13 0 0 1 3.6-1.8 8.48 8.48 0 0 1 1.44-.27ZM249.87 170.17c-.13 0-.26-.02-.39-.05-.26-.06-.64-.12-1.13-.26-1.35-.4-2.65-.97-3.87-1.7a39.07 39.07 0 0 1-5.05-3.69c-1.82-1.5-3.75-3.21-5.97-4.74a20.45 20.45 0 0 0-6.86-3.15 21.17 21.17 0 0 0-10.29.05c-.96.24-1.48.43-1.49.4.12-.08.24-.13.37-.17a18.77 18.77 0 0 1 5.25-1.1 20.25 20.25 0 0 1 13.23 3.68c2.24 1.56 4.18 3.28 5.98 4.8a41.33 41.33 0 0 0 4.97 3.73c1.19.73 2.46 1.33 3.78 1.78.5.12.99.26 1.47.42ZM250 101.88c-.4.18-.8.33-1.21.44-.48.17-.96.31-1.45.43-.57.14-1.21.34-1.94.47-.73.13-1.52.3-2.39.42l-2.75.3c-2.12.13-4.25.1-6.36-.09-2.12-.2-4.2-.58-6.27-1.1-.94-.27-1.84-.52-2.66-.81-.81-.3-1.58-.57-2.26-.86-.68-.28-1.28-.57-1.82-.82a18.03 18.03 0 0 1-2.43-1.34c.4.14.79.32 1.16.52.37.19.83.41 1.36.63.53.23 1.14.52 1.84.76.69.25 1.44.56 2.26.81a41.16 41.16 0 0 0 15.16 1.94c.96-.08 1.88-.13 2.74-.25.86-.14 1.65-.24 2.37-.37.72-.13 1.36-.3 1.94-.42.57-.12 1.06-.25 1.44-.36.41-.13.84-.23 1.26-.3ZM340.14 101.7l-.3-.15-.84-.49c-.44-.26-.89-.5-1.35-.72-.6-.32-1.2-.6-1.83-.86l-1.08-.45c-.38-.16-.79-.27-1.2-.42-.83-.3-1.75-.5-2.7-.76a29.9 29.9 0 0 0-15.5.61c-.42.14-.83.25-1.21.4l-1.1.43c-.62.24-1.23.52-1.83.83-.47.2-.92.45-1.36.72l-.85.47-.3.14c.07-.08.17-.15.26-.2l.81-.54c.43-.28.88-.54 1.34-.77.6-.33 1.2-.63 1.84-.88l1.09-.47c.38-.15.8-.26 1.22-.4.9-.31 1.81-.57 2.74-.77 4.26-.93 8.68-.9 12.92.12.97.26 1.9.48 2.72.8.42.15.84.27 1.21.44l1.1.48a20.2 20.2 0 0 1 3.13 1.71l.8.55c.19.1.31.17.27.18ZM295.96 52.62a3.1 3.1 0 0 1-.51.32l-1.5.83c-1.34.72-3.28 1.73-5.7 2.94-4.85 2.4-11.65 5.66-19.7 7.7a53.95 53.95 0 0 1-11.56 1.6c-3.18.1-6.36-.18-9.48-.81a32.95 32.95 0 0 1-6.14-1.87c-.72-.28-1.22-.57-1.58-.72a4.2 4.2 0 0 1-.55-.29c.2.06.4.13.57.22.38.14.9.4 1.62.66a35.5 35.5 0 0 0 6.13 1.75c3.1.59 6.27.83 9.43.72 3.87-.14 7.71-.68 11.46-1.63 8-2.02 14.8-5.23 19.67-7.57l5.78-2.84 1.49-.76c.18-.1.38-.18.57-.25Z" fill="#fff"/><path d="m150.94 178.5 24.15 1.06-1.12 25.6-24.15-1.06-1.86 42.53-31.79-1.38 1.86-42.54-82-3.58.06-19.5L123.5 54.05l32.82 1.44-5.38 123Zm-83.09-3.6 51.3 2.23 3.38-77.58-.77-.3-2.9 5.53-51 70.11Z" fill="#DCE9FA"/><path d="m171.12 179.38 24.16 1.06-1.13 25.6-24.15-1.06-1.85 42.53-31.8-1.38 1.87-42.54-82.05-3.6.07-19.52 87.43-125.5 32.82 1.44-5.37 122.97Zm-83.08-3.6 51.33 2.23 3.38-77.58-.77-.3-2.9 5.53-51.04 70.11Z" fill="url(#g)"/><path d="M56.68 184.23c-.25.17-.5.32-.78.44l-2.17 1.05a215.53 215.53 0 0 1-17.1 7.1c-.27.11-.56.2-.85.26.25-.17.52-.3.8-.4l2.24-.95 7.39-3.11 7.38-3.16 2.25-.95c.27-.12.55-.22.84-.28ZM68.44 162.61c-.35.21-.72.4-1.1.57-.71.35-1.74.84-3.03 1.44a480.82 480.82 0 0 1-10.11 4.43c-3.96 1.68-7.62 3.12-10.23 4.14-1.32.52-2.39.93-3.14 1.2-.37.16-.77.28-1.17.37.36-.2.74-.37 1.12-.51l3.09-1.3 10.2-4.29 10.16-4.33 3.09-1.3c.36-.18.73-.32 1.12-.42ZM82.8 143.3c-.37.22-.75.42-1.15.58-.72.34-1.83.84-3.17 1.44a456.26 456.26 0 0 1-24.53 9.8c-.4.16-.8.29-1.22.38.38-.2.77-.37 1.17-.52l3.22-1.3 10.64-4.28 10.61-4.34 3.22-1.3c.4-.19.8-.34 1.2-.46ZM140.3 165.58a4.1 4.1 0 0 1-.8.43 212.83 212.83 0 0 1-9.56 4.16c-2.9 1.18-5.55 2.17-7.47 2.89l-2.29.8c-.28.1-.56.19-.86.24.25-.16.52-.28.8-.38l2.26-.9 7.43-2.98 7.4-3.04 2.24-.92c.27-.13.55-.23.85-.3ZM137.95 205.27c-.23.17-.49.31-.75.43-.5.24-1.23.6-2.14 1.02-1.8.84-4.33 1.96-7.13 3.13s-5.38 2.17-7.22 2.9l-2.23.79c-.27.1-.55.2-.83.24.24-.16.5-.28.78-.38l2.16-.91 7.23-2.97 7.17-3.03 2.16-.92c.26-.12.53-.23.8-.3ZM137.62 219.19c-.22.16-.47.3-.72.41a223.5 223.5 0 0 1-9.3 4.16c-2.8 1.18-5.38 2.17-7.23 2.9l-2.23.8c-.26.11-.54.2-.83.24.25-.15.51-.28.78-.38l2.17-.91 7.22-2.97 7.18-3.03 2.17-.91c.25-.14.51-.24.8-.31ZM137.29 233.1c-.23.16-.47.3-.72.42a196.73 196.73 0 0 1-9.3 4.15c-2.81 1.17-5.38 2.17-7.23 2.9l-2.23.79c-.27.1-.54.2-.83.24.24-.15.5-.28.78-.38l2.17-.9 7.22-2.98 7.18-3.03 2.16-.91c.26-.13.52-.24.8-.3ZM140.67 150.88c-.25.17-.51.31-.79.43-.5.25-1.26.6-2.16 1.02-1.87.84-4.47 1.96-7.37 3.14-2.9 1.18-5.54 2.17-7.47 2.9l-2.29.79c-.27.1-.56.19-.86.24.25-.16.52-.29.8-.38l2.26-.91 7.43-2.97 7.4-3.03 2.24-.91c.26-.14.53-.24.81-.31ZM141.05 136.2c-.25.16-.52.3-.8.42a197.94 197.94 0 0 1-9.56 4.15c-2.9 1.17-5.54 2.17-7.47 2.9l-2.29.79c-.27.1-.56.19-.86.24.26-.16.53-.29.81-.38l2.25-.91 7.43-2.97 7.4-3.04 2.24-.9c.27-.14.56-.24.85-.3ZM141.42 121.5c-.22.15-.47.29-.72.4a184.67 184.67 0 0 1-9.1 3.97 207 207 0 0 1-7.13 2.73 35.34 35.34 0 0 1-2.99.96c.24-.16.5-.28.77-.37l2.17-.87 7.08-2.82 7.05-2.9 2.16-.86c.23-.1.47-.19.71-.24ZM143.08 107.76a21.1 21.1 0 0 1-3.6 1.54c-1.22.51-2.47.91-3.76 1.2a21.05 21.05 0 0 1 3.62-1.56c1.2-.51 2.46-.9 3.74-1.18ZM97.12 123.3c-.36.22-.74.41-1.13.58-.73.35-1.83.83-3.18 1.44a468.35 468.35 0 0 1-21.25 8.61c-1.38.52-2.5.92-3.27 1.2-.4.15-.8.27-1.22.37.37-.2.76-.38 1.17-.52l3.22-1.29 10.63-4.31 10.62-4.34 3.21-1.3c.4-.18.8-.32 1.2-.44ZM111.45 103.3a7.5 7.5 0 0 1-1.14.57c-.72.35-1.83.84-3.17 1.45a484.59 484.59 0 0 1-21.26 8.6c-1.37.52-2.49.93-3.27 1.2-.39.16-.8.28-1.21.37.37-.2.76-.37 1.16-.51l3.22-1.3 10.64-4.29 10.62-4.33 3.21-1.32c.4-.18.8-.32 1.2-.44ZM124.7 83.3c-.37.22-.75.41-1.14.58l-3.17 1.44a454.7 454.7 0 0 1-21.26 8.61c-1.37.51-2.5.92-3.27 1.19-.4.15-.8.28-1.22.38.38-.2.77-.38 1.17-.52l3.23-1.3 10.63-4.28 10.61-4.33 3.22-1.31c.38-.19.78-.34 1.2-.46ZM138.48 64.07c-.37.21-.75.4-1.14.57-.72.35-1.83.84-3.17 1.45a459.96 459.96 0 0 1-24.53 9.8c-.4.15-.8.28-1.22.38.38-.2.77-.38 1.17-.52l3.22-1.3 10.63-4.31 10.61-4.34 3.22-1.3c.4-.18.8-.32 1.21-.43Z" fill="#0062F4"/><path d="M175.05 93.45a14.26 14.26 0 0 1-1.73 1.74 22.96 22.96 0 0 1-5.6 3.61 24.72 24.72 0 0 1-9.66 2.17c-1.97.03-3.93-.19-5.84-.66a29.58 29.58 0 0 1-5.9-2.2c-3.9-1.9-7.35-4.13-10.72-5.68a24.57 24.57 0 0 0-9.46-2.47c-2.22-.11-4.43.3-6.46 1.2-.54.26-1.07.56-1.56.9-.17.13-.35.24-.54.34a10.08 10.08 0 0 1 2.04-1.37 13.86 13.86 0 0 1 6.5-1.34c3.34.16 6.6 1 9.6 2.46 3.41 1.56 6.88 3.78 10.73 5.66 1.87.93 3.82 1.65 5.84 2.17 1.88.47 3.8.7 5.74.66a24.31 24.31 0 0 0 15.17-5.58c.62-.5 1.05-.93 1.36-1.2.15-.16.32-.29.5-.41ZM165 57.73c-.3.2-.6.38-.92.53-.6.33-1.5.73-2.62 1.23a41 41 0 0 1-21.63 2.72 6.1 6.1 0 0 1-1.04-.21c.35-.01.7 0 1.06.06a46.58 46.58 0 0 0 12.35-.33c1.7-.28 3.39-.67 5.05-1.13a48.5 48.5 0 0 0 6.7-2.47c.33-.17.69-.3 1.05-.4ZM113.7 137.97a5.37 5.37 0 0 1-.65-.72l-1.7-2.04a81.2 81.2 0 0 0-6.06-6.32 22.15 22.15 0 0 0-3.8-2.9 11.51 11.51 0 0 0-3.6-1.4c-1.19-.2-2.4-.2-3.58 0l.24-.09a8.1 8.1 0 0 1 3.4-.17c1.32.23 2.58.7 3.74 1.37 1.4.83 2.7 1.81 3.88 2.94a63.2 63.2 0 0 1 7.61 8.54c.2.24.38.5.52.79ZM171.33 159.8l-.28.2c-.19.14-.47.35-.86.56a22.1 22.1 0 0 1-29-5.93c-.27-.35-.45-.65-.58-.84-.13-.2-.19-.3-.17-.31.3.34.6.7.86 1.07.78.96 1.63 1.86 2.55 2.7a22.5 22.5 0 0 0 22.82 4.67c1.17-.4 2.31-.9 3.4-1.48.41-.24.83-.46 1.26-.65ZM192.38 205.54l-.2-.34c-.13-.23-.34-.56-.58-1a27.75 27.75 0 0 0-2.47-3.66l-.99-1.16-.52-.63-.62-.6-1.3-1.28-1.51-1.26a34.18 34.18 0 0 0-7.95-4.72 32.6 32.6 0 0 0-10.84-2.52c-4.3-.23-8.59.46-12.6 2.03-4.22 1.66-8.3 4.16-12.62 6.6a59.94 59.94 0 0 1-6.78 3.36 27.72 27.72 0 0 1-7.57 1.99c-2.6.26-5.23.1-7.79-.47a34.87 34.87 0 0 1-7.17-2.42 75.28 75.28 0 0 1-12.22-7.43c-3.71-2.64-7.23-5.19-10.7-7.23a38.51 38.51 0 0 0-10.29-4.39c-3-.74-6.1-.94-9.18-.6-2.32.23-4.58.89-6.67 1.92-1.3.67-2.52 1.51-3.6 2.5l-.85.78-.28.26.26-.3.79-.84a16.54 16.54 0 0 1 3.61-2.56 19.57 19.57 0 0 1 6.72-2.01 26.4 26.4 0 0 1 9.27.56 39.1 39.1 0 0 1 10.37 4.37c3.52 2.04 7.03 4.58 10.75 7.23a75 75 0 0 0 12.17 7.37 34.18 34.18 0 0 0 7.1 2.42c2.52.56 5.1.72 7.68.46 2.56-.3 5.07-.95 7.44-1.95a61.64 61.64 0 0 0 6.75-3.34c4.34-2.42 8.41-4.93 12.67-6.6 1.06-.42 2.13-.76 3.23-1.04.54-.14 1.07-.3 1.6-.41l1.63-.27c2.08-.31 4.18-.4 6.28-.29a32.87 32.87 0 0 1 18.9 7.38l1.52 1.28 1.3 1.31.6.6a76.57 76.57 0 0 1 1.5 1.81 25.57 25.57 0 0 1 2.97 4.74c.14.23.19.35.19.35ZM170.54 235.72c-.11.04-.24.07-.36.09l-1.07.2c-.56.12-1.13.2-1.7.25-.66.07-1.44.18-2.27.2l-1.33.06h-1.44c-1 0-2.06-.1-3.17-.18-2.4-.27-4.8-.73-7.13-1.39a44.37 44.37 0 0 1-6.76-2.66c-.98-.53-1.93-1.01-2.77-1.55l-1.22-.73-1.08-.75c-.73-.47-1.28-.97-1.8-1.4-.46-.34-.9-.71-1.32-1.11-.3-.3-.57-.55-.78-.72-.1-.09-.19-.18-.26-.28.1.06.21.13.3.22l.84.72c.36.3.8.67 1.34 1.06.54.4 1.12.88 1.83 1.34l1.09.72c.38.26.8.49 1.22.72.84.53 1.79 1 2.77 1.51a41.28 41.28 0 0 0 13.77 4.02c1.1.09 2.17.2 3.14.21.5 0 .97.04 1.45 0h1.31c.84 0 1.6-.1 2.26-.14.67-.04 1.24-.11 1.7-.18l1.08-.13c.11-.06.24-.09.36-.1Z" fill="#fff"/><path d="m464.68 178.8 24.05-2.35 2.5 25.5-24.06 2.35 4.14 42.37-31.65 3.1-4.11-42.37-81.76 8-2.68-19.32L420 59.47l32.69-3.2 11.99 122.53Zm-82.78 8.1 51.13-5-7.56-77.3-.81-.18-2.07 5.88-40.7 76.6Z" fill="#DCE9FA"/><path d="m484.8 176.84 24.05-2.36 2.5 25.5-24.06 2.37 4.14 42.37-31.65 3.1-4.14-42.37-81.73 7.97-2.66-19.3L440.13 57.5l32.7-3.2 11.97 122.53Zm-82.78 8.09 51.13-4.98-7.55-77.3-.82-.2-2.06 5.89-40.7 76.59Z" fill="url(#h)"/><path d="M403.63 131.72a7.7 7.7 0 0 1-1.04.72l-2.95 1.86a473.19 473.19 0 0 1-19.83 11.5c-1.29.73-2.34 1.27-3.07 1.65-.37.2-.76.38-1.15.54.34-.25.7-.48 1.08-.67l3-1.75 9.93-5.73 9.9-5.78 3-1.75c.37-.22.74-.42 1.13-.6ZM415 109.87c-.32.27-.67.51-1.04.72-.72.45-1.7 1.09-2.94 1.86a513.43 513.43 0 0 1-19.84 11.5 88.93 88.93 0 0 1-3.06 1.65c-.38.2-.76.39-1.16.54.34-.25.7-.47 1.08-.67l3-1.74 9.94-5.74 9.9-5.78 3-1.75c.36-.22.74-.42 1.13-.59Z" fill="#FF725E"/><path d="M372.16 197.73a76.7 76.7 0 0 1-2.75 1.9 219.69 219.69 0 0 1-15.95 9.43c-.26.15-.53.28-.82.37.22-.2.46-.37.72-.5l2.1-1.25 6.9-4.12 6.86-4.16 2.09-1.25c.26-.18.55-.32.85-.42ZM380.75 174.65c-.3.27-.64.51-1 .72a299.26 299.26 0 0 1-12.2 7.61c-3.67 2.18-7.07 4.2-9.53 5.6-1.23.72-2.23 1.24-2.94 1.61-.35.2-.72.39-1.1.54.32-.25.67-.47 1.03-.67l2.9-1.72 9.48-5.67 9.46-5.71 2.88-1.73c.33-.22.67-.41 1.02-.58ZM392.25 153.54c-.32.26-.68.5-1.04.72l-2.94 1.86a693.9 693.9 0 0 1-19.84 11.55 88.93 88.93 0 0 1-3.06 1.64c-.38.2-.76.39-1.16.54.34-.25.7-.47 1.08-.67l3-1.74 9.94-5.74 9.9-5.78 3-1.75c.36-.24.73-.45 1.13-.63ZM452.32 167.5c-.22.21-.46.39-.72.54a226.64 226.64 0 0 1-15.88 9.36 56.49 56.49 0 0 1-2.98 1.47c.22-.2.46-.36.72-.5l2.1-1.21 6.93-3.99 6.9-4.04 2.1-1.22c.26-.16.54-.3.83-.4ZM455.59 207.13a86.82 86.82 0 0 1-2.69 1.84 212.87 212.87 0 0 1-13.4 7.97c-.87.48-1.58.85-2.08 1.1-.25.15-.52.27-.8.36.23-.19.47-.35.73-.49l2.02-1.2 6.72-3.95 6.67-4.02 2.03-1.2c.25-.17.52-.31.8-.41ZM457.22 220.95a87.44 87.44 0 0 1-2.69 1.84 200.13 200.13 0 0 1-15.48 9.08c-.25.14-.52.26-.8.35.23-.19.47-.35.73-.48l2.03-1.21 6.7-3.95 6.69-4.02 2.03-1.2c.24-.17.5-.3.79-.41ZM458.84 234.77a70.68 70.68 0 0 1-2.69 1.84c-1.67 1.09-4 2.55-6.62 4.1-2.61 1.56-5.02 2.9-6.77 3.87-.88.48-1.6.85-2.1 1.1-.24.15-.51.27-.79.36.23-.19.47-.35.73-.48l2.03-1.21 6.7-3.95 6.68-4.02 2.03-1.2c.25-.17.52-.3.8-.4ZM450.62 152.9c-.22.2-.46.38-.72.53-.48.32-1.17.78-2.04 1.33a230.79 230.79 0 0 1-13.84 8.03c-.9.48-1.65.86-2.17 1.11-.25.15-.53.27-.81.36.22-.18.46-.35.72-.49l2.1-1.21 6.93-3.99 6.9-4.04 2.1-1.22c.26-.16.54-.3.83-.4ZM448.93 138.3c-.23.2-.47.38-.73.53a193.47 193.47 0 0 1-8.89 5.46 221.83 221.83 0 0 1-9.15 5.01c-.26.15-.54.27-.82.35.22-.18.46-.34.72-.48l2.1-1.22 6.93-3.98 6.9-4.05 2.1-1.22c.26-.16.54-.3.84-.4ZM447.24 123.7c-.21.2-.44.36-.68.5l-1.95 1.27a197.44 197.44 0 0 1-13.17 7.66l-2.06 1.05c-.24.14-.5.26-.78.34.23-.18.47-.34.72-.47l2-1.16 6.61-3.8 6.57-3.85 2-1.16c.23-.15.48-.28.74-.38ZM446.95 109.87a20.49 20.49 0 0 1-3.37 2.04 21.7 21.7 0 0 1-3.55 1.71 20.49 20.49 0 0 1 3.37-2.04 21.46 21.46 0 0 1 3.55-1.7ZM425.3 88.23c-.32.27-.67.51-1.04.72-.72.45-1.69 1.09-2.94 1.86a497.56 497.56 0 0 1-22.9 13.15c-.37.2-.76.39-1.16.54.35-.25.7-.47 1.09-.67l3-1.74 9.93-5.74 9.9-5.78 3-1.75c.36-.22.74-.42 1.13-.59ZM436.27 67.24c-.33.27-.68.51-1.05.73-.69.44-1.69 1.08-2.94 1.85a530.34 530.34 0 0 1-19.84 11.52c-1.29.72-2.33 1.26-3.06 1.63-.37.21-.76.4-1.16.55.34-.26.7-.48 1.09-.68l3-1.73 9.93-5.78 9.9-5.78 3-1.75c.36-.21.74-.4 1.13-.56Z" fill="#0062F4"/><path d="M476.59 91.2a14.16 14.16 0 0 1-1.47 1.97 22.8 22.8 0 0 1-5.06 4.38 24.6 24.6 0 0 1-9.24 3.54c-1.94.31-3.92.37-5.88.17-2.09-.23-4.15-.69-6.15-1.35-4.12-1.33-7.85-3.05-11.41-4.12-3.13-1-6.43-1.38-9.71-1.1-2.21.2-4.34.93-6.22 2.11-.5.33-1 .7-1.44 1.1-.15.16-.31.3-.48.42a10.2 10.2 0 0 1 1.82-1.64 13.85 13.85 0 0 1 6.27-2.24 24.5 24.5 0 0 1 9.87.98c3.61 1.06 7.34 2.77 11.41 4.1a30.3 30.3 0 0 0 6.09 1.34c1.92.2 3.86.15 5.78-.15a23.97 23.97 0 0 0 15.37-9.05c.14-.17.29-.32.45-.46ZM461.6 57.25c-.25.25-.53.47-.83.66a38.96 38.96 0 0 1-11.13 5.47 41.33 41.33 0 0 1-9.38 1.77 31.2 31.2 0 0 1-3.95 0c.35-.05.7-.08 1.06-.07.68 0 1.66-.1 2.89-.2a46.13 46.13 0 0 0 9.27-1.86 46.38 46.38 0 0 0 8.7-3.76c1.05-.6 1.9-1.1 2.46-1.45.3-.2.6-.4.92-.56ZM422.1 143.9c-.25-.19-.5-.4-.72-.63l-1.98-1.77a80.98 80.98 0 0 0-6.87-5.41c-1.3-.94-2.7-1.72-4.17-2.36a10.26 10.26 0 0 0-7.32-.4s.07-.05.22-.12a8.04 8.04 0 0 1 3.34-.61c1.34.03 2.65.31 3.89.81 1.5.63 2.93 1.42 4.25 2.37 2.4 1.68 4.7 3.53 6.85 5.53.82.76 1.44 1.44 1.9 1.86.23.22.44.47.62.74ZM482.23 157.42s-.07.09-.24.25c-.18.16-.42.4-.78.66a22.14 22.14 0 0 1-29.5-1.8c-.32-.31-.54-.58-.72-.72a1.27 1.27 0 0 1-.22-.3l1 .95c.9.84 1.87 1.62 2.9 2.31a22.5 22.5 0 0 0 23.24 1.45c1.1-.57 2.16-1.22 3.16-1.95.37-.3.76-.6 1.16-.85ZM509.51 199.74l-.27-.28c-.18-.21-.4-.52-.73-.9-.9-1.18-1.89-2.27-2.96-3.29l-1.14-1-.6-.55-.73-.51-1.44-1.09-1.69-1.03a34.09 34.09 0 0 0-8.5-3.56 32.71 32.71 0 0 0-11.11-1 30.22 30.22 0 0 0-12.18 3.79c-3.95 2.24-7.64 5.3-11.56 8.3a61.28 61.28 0 0 1-6.24 4.29 27.68 27.68 0 0 1-7.23 3.03 24.7 24.7 0 0 1-7.78.63c-2.53-.21-5.03-.7-7.45-1.45a74.46 74.46 0 0 1-13.14-5.63c-4.05-2.1-7.87-4.12-11.61-5.64a38.9 38.9 0 0 0-10.84-2.89c-3.07-.3-6.18-.05-9.17.72-2.26.57-4.4 1.53-6.33 2.85-1.2.85-2.3 1.85-3.25 2.97l-.69.93-.24.31s.06-.12.2-.33l.67-.95a16.32 16.32 0 0 1 3.22-3.05 19.28 19.28 0 0 1 6.37-2.93 26.4 26.4 0 0 1 9.25-.76c3.75.43 7.42 1.4 10.89 2.9 3.77 1.5 7.6 3.53 11.65 5.61a75.08 75.08 0 0 0 13.09 5.6c2.4.72 4.87 1.2 7.37 1.39a24.14 24.14 0 0 0 14.76-3.6 59.85 59.85 0 0 0 6.2-4.26c3.94-3 7.65-6.06 11.63-8.32.99-.55 2-1.05 3.05-1.48.51-.22 1.01-.45 1.53-.63l1.56-.5a31.33 31.33 0 0 1 17.4-.15c3 .81 5.88 2.03 8.56 3.62l1.68 1.04 1.44 1.12.73.5.6.56 1.14 1.03a27.15 27.15 0 0 1 3.57 4.27l.32.32ZM492.13 232.69c-.11.06-.23.1-.35.14l-1.02.36c-.55.19-1.1.35-1.65.48-.66.16-1.39.38-2.23.51l-1.3.25c-.45.08-.93.12-1.44.19-.98.14-2.05.2-3.17.26-2.41.08-4.83-.05-7.22-.36a43.1 43.1 0 0 1-7.07-1.7c-1.05-.37-2.06-.72-2.96-1.14-.45-.2-.9-.37-1.31-.57l-1.18-.6c-.77-.37-1.41-.78-1.99-1.12-.5-.29-.98-.6-1.44-.93l-.9-.63c-.1-.06-.2-.14-.29-.24.12.05.24.1.34.18l.93.57c.39.25.88.56 1.44.87.56.3 1.23.72 2 1.06l1.18.57c.41.2.86.37 1.31.56.9.4 1.9.72 2.95 1.1 2.31.74 4.68 1.28 7.08 1.63 2.38.33 4.78.46 7.18.4 1.11-.06 2.17-.1 3.14-.23.48-.06.96-.1 1.44-.17l1.3-.21c.84-.12 1.57-.32 2.22-.46.66-.14 1.21-.29 1.66-.43l1.05-.28.3-.06Z" fill="#fff"/><path d="m341.68 126.88-5.06-.8-31.33-10.11-18.32-5.3a19.74 19.74 0 0 0-15.86 1.08c-8.67 4.41-32.55 26.65-32.55 26.65l17.2 17.74-8.1 35.89c9.07 25.78 26.82 28.73 26.82 28.73a62.87 62.87 0 0 0 25.43-4.2c16.48-6.27 33.77-21.01 35.94-27.35 1.3-3.8 2.37-11.79 3.22-20.81l26.1-10.64 7.07-36.12-30.56 5.24Z" fill="url(#i)"/><path d="m341.68 126.88-5.06-.8c-21.77 62.33-37.22 78.07-67 93 10.48-15.4 27.82-29.48 34-40.84 7.33-13.5 2.88-24 8-39.84l-6.33-22.43-18.32-5.3a19.74 19.74 0 0 0-15.86 1.08c-8.67 4.41-32.55 26.65-32.55 26.65l17.2 17.74-8.1 35.89c9.07 25.78 26.82 28.73 26.82 28.73a62.87 62.87 0 0 0 25.43-4.2c16.48-6.27 33.77-21.01 35.94-27.35 1.3-3.8 2.37-11.79 3.22-20.81l26.1-10.64 7.07-36.12-30.56 5.24Z" fill="#EAEFF5"/><path d="M299.24 152.4a1 1 0 1 0 .72-1.87 1 1 0 0 0-.72 1.88ZM304.3 153.38l-1.01-.12a2.18 2.18 0 0 1-.52-.13l-1.35-.5a.73.73 0 0 0-.9.32.73.73 0 0 1-.89.32l-.19-.07-.39.87.13.28a2.15 2.15 0 0 0 3.1.92l.3-.18.13-.05c.34-.13.63-.4.77-.78l.07-.08c.33-.16.6-.44.74-.8ZM294.82 149.78l.83.58c.15.1.3.2.47.25l1.35.51c.33.13.53.49.45.84-.07.35.12.7.46.83l.19.08-.29.9-.28.13a2.15 2.15 0 0 1-2.94-1.36l-.1-.34a1.38 1.38 0 0 1-.13-1.22l.02-.1a1.45 1.45 0 0 1-.03-1.1Z" fill="#AABFDF"/><path d="m299.65 152.49-2.18 5.75a5.09 5.09 0 0 1-1.09 1.72 5.1 5.1 0 0 1 .32-2.02l2.18-5.74.77.29Z" fill="#AABFDF"/><path d="M290.31 189.77s-.06.06-.21.15a14.45 14.45 0 0 1-3.3 1.46c-3.05.93-6.31.92-9.36-.04a15.51 15.51 0 0 1-9.16-7.66c-.15-.3-.24-.54-.31-.7a1.15 1.15 0 0 1-.09-.24c.19.28.35.58.5.88.46.81.99 1.58 1.58 2.3 1.93 2.4 4.56 4.2 7.54 5.14 2.99.94 6.2.98 9.2.12.9-.25 1.79-.58 2.63-.98.65-.3.97-.47.99-.43ZM293.65 117.46l.06.18.13.51c.1.45.26 1.12.44 1.98.54 2.43.88 4.9 1.04 7.39.09 1.73-.01 3.45-.3 5.16a16.8 16.8 0 0 1-2.06 5.57 22.02 22.02 0 0 1-4.28 4.96c-1.7 1.52-3.58 2.9-5.5 4.38-4.07 3.06-8.03 5.82-11.56 8.34a431.76 431.76 0 0 0-9.16 6.65l-.08.07-.08-.07a54.03 54.03 0 0 1-5.02-4.51c-.42-.44-.82-.9-1.17-1.4-.13-.16-.2-.3-.26-.38a1.2 1.2 0 0 1-.08-.15l.4.5c.37.46.78.9 1.2 1.33 1.62 1.56 3.3 3.03 5.06 4.42h-.15c2.48-1.92 5.59-4.22 9.13-6.74 3.54-2.52 7.48-5.3 11.56-8.36 1.9-1.44 3.78-2.85 5.47-4.33a21.85 21.85 0 0 0 4.23-4.87c1-1.68 1.7-3.52 2.04-5.44.3-1.68.42-3.4.35-5.1a52.48 52.48 0 0 0-.92-7.37l-.37-2a10.79 10.79 0 0 1-.12-.72Z" fill="#B0BFD7"/><path d="M429.71 133.71c7.34-6.3 9.82-17.61 5.78-26.39l-10.33-1.06a14.73 14.73 0 0 0 7.5-14.86 19.73 19.73 0 0 1-22.57 4.16c-4.82-2.39-8.74-6.83-14.04-7.76-4.81-.85-9.55 1.44-14.16 3.05-4.6 1.6-10.18 2.53-14-.52-3.02-2.42-3.96-6.66-3.76-10.54.2-3.87 1.31-7.64 1.55-11.5a26.16 26.16 0 0 0-8.37-20.4 19.84 19.84 0 0 0-31.15-9.9c-2.26 1.75-4.17 4.01-6.73 5.28-2.89 1.44-6.26 1.44-9.4 2.16-3.12.73-6.42 2.85-6.75 6.07L302 58.08c-.2.47-.43.93-.72 1.38-2.66 4.67-8.1 7.74-9.3 13-.66 2.95.16 6.14-.83 8.98-1.3 3.75-5.35 5.86-7.22 9.35-2.6 4.8-.83 13.2 3.3 16.74 4.14 3.54 12.68 7.3 18 8.43a336.66 336.66 0 0 0 3.97-17.53c2.17 2.1 4.46 4.08 6.72 6.05 5.94 5.16 12 10.4 16.12 17.1 7.82 12.73 7.94 29.62 17.8 40.84 1.93 2.2 4.28 4.16 7.08 5.02 2.8.85 6.13.4 8.2-1.67 2.45-2.44 2.77-6.56 5.48-8.7 3.61-2.86 8.86-.59 12.72 1.9 2.8 1.78 5.6 3.68 8.78 4.66 3.17.98 6.87.92 9.57-1.02s3.89-6.07 1.94-8.76c-.78-1.08-1.94-1.83-2.72-2.9-.77-1.05-1-2.79.07-3.6 1.06-.82 2.8 0 4.06.72a24.22 24.22 0 0 0 35.22-13.1c-3.56.53-7.2.1-10.54-1.26Z" fill="#263238"/><path d="M423.26 77.03a10.83 10.83 0 0 1 3.1 3.6c.4.77.66 1.6.8 2.44a5.78 5.78 0 0 1-2.58 5.72 4.17 4.17 0 0 1-3.84.37c-2.68-1.1-4.03-4.2-6.93-5.58-2.82-1.5-6.43-1.6-9.9-.8-3.47.8-6.86 2.68-10.28 4.6-3.41 1.92-7.05 3.98-11.23 4.7-2.05.4-4.16.38-6.21-.05-1-.23-1.98-.59-2.9-1.07-.88-.48-1.7-1.09-2.42-1.79a13.69 13.69 0 0 1-3.1-4.93 22.22 22.22 0 0 1-1.3-5.44c-.38-3.6-.07-7.08-.04-10.28.15-2.97-.15-5.94-.87-8.83-.35-1.24-.8-2.45-1.38-3.6a22.46 22.46 0 0 0-8.27-9.18l-.79-.48-.26-.17.28.14.81.43a21.53 21.53 0 0 1 6.65 6.15 21.6 21.6 0 0 1 3.21 6.65c.76 2.9 1.07 5.9.94 8.9 0 3.22-.32 6.66.07 10.24.2 1.82.63 3.62 1.27 5.34.66 1.8 1.69 3.43 3.03 4.8a10.62 10.62 0 0 0 5.13 2.76c2 .4 4.06.42 6.06.04 4.1-.73 7.7-2.74 11.12-4.66 3.42-1.91 6.8-3.8 10.38-4.61 1.73-.41 3.51-.56 5.3-.45a11.48 11.48 0 0 1 4.83 1.31c3 1.45 4.33 4.58 6.88 5.6a3.85 3.85 0 0 0 3.61-.32 5.55 5.55 0 0 0 2.53-5.46 7.83 7.83 0 0 0-.72-2.39 11.36 11.36 0 0 0-2.71-3.46l-.27-.24ZM305.18 118.73s0-.1-.06-.32a8.01 8.01 0 0 0-1.97-4.17 13.82 13.82 0 0 0-4.79-3.33c-2.1-.96-4.7-1.44-7.54-1.96-2.84-.53-6.07-1.15-8.98-3.08a13.33 13.33 0 0 1-2.12-20.31c2.99-3.07 7.22-4.6 10.68-7.29.84-.68 1.6-1.46 2.26-2.32a9.6 9.6 0 0 0 1.4-2.89c.57-2.05.52-4.2.71-6.28.08-1.05.28-2.09.58-3.09.32-1 .84-1.91 1.53-2.7a10.84 10.84 0 0 1 5.16-2.9c1.86-.53 3.7-.87 5.45-1.35 1.7-.43 3.31-1.17 4.76-2.17a17.86 17.86 0 0 0 3.56-3.34 39.94 39.94 0 0 0 2.7-3.56c1.6-2.42 2.96-4.68 4.41-6.5a21.16 21.16 0 0 1 4.21-4.17 11.76 11.76 0 0 1 4.6-2.02s-.44.1-1.25.39a12 12 0 0 0-3.26 1.76 21.05 21.05 0 0 0-4.13 4.16c-1.45 1.81-2.78 4.06-4.34 6.5a38.02 38.02 0 0 1-2.69 3.7 18.33 18.33 0 0 1-3.6 3.4c-1.48 1-3.12 1.74-4.85 2.18-1.76.49-3.61.83-5.44 1.37-1.9.44-3.62 1.4-5 2.78a7.42 7.42 0 0 0-1.44 2.57c-.3.98-.49 1.99-.56 3-.2 2.07-.14 4.23-.72 6.36a9.8 9.8 0 0 1-1.45 2.98 13.8 13.8 0 0 1-2.34 2.39 48.09 48.09 0 0 1-5.55 3.53 24.24 24.24 0 0 0-5.06 3.72 13 13 0 0 0 2.04 19.8c2.81 1.9 6.02 2.5 8.85 3.07 2.82.57 5.46 1.04 7.57 2.03 1.83.78 3.48 1.95 4.82 3.43a7.95 7.95 0 0 1 1.9 4.26c-.05.27-.05.38-.05.38Z" fill="#263238"/><path d="M362.86 53.88a12 12 0 0 1-2-.72 19.09 19.09 0 0 1-7.72-6.64c-.29-.44-.55-.88-.79-1.35-.1-.16-.18-.34-.22-.53.05 0 .46.67 1.23 1.72 2 2.74 4.61 4.98 7.62 6.56 1.15.6 1.9.9 1.88.96ZM386.88 103.16s-.45-.12-1.27-.3a20.73 20.73 0 0 0-3.51-.42c-1.75-.05-3.5 0-5.25.15-1.98.13-4.16.34-6.46.28-2.19 0-4.35-.4-6.38-1.2a11.36 11.36 0 0 1-4.28-3.11c-.78-.92-1.34-2-1.64-3.18a5.48 5.48 0 0 1-.15-1.3c.04 0 .06.47.3 1.27a8.38 8.38 0 0 0 1.7 3.03c1.16 1.3 2.6 2.33 4.21 2.98 2 .75 4.12 1.14 6.25 1.14 2.28.05 4.45-.14 6.44-.26 1.76-.14 3.52-.16 5.28-.07 1.2.07 2.38.25 3.53.55a9.64 9.64 0 0 1 1.23.44ZM429.45 136s-.06 0-.2.1a5.15 5.15 0 0 1-3.23.1 8.34 8.34 0 0 1-3.47-2.17 14.48 14.48 0 0 1-2.8-4.68c-.78-1.85-1.44-3.97-2.73-5.93a15.6 15.6 0 0 0-5.35-5.12c-4.54-2.74-10.5-3.86-16.62-3.5-6.12.37-11.88 1.52-17.2 1.89-4.72.5-9.5.01-14.02-1.45a19.4 19.4 0 0 1-8.04-5.05 11.86 11.86 0 0 1-1.58-2.05l-.35-.58a.9.9 0 0 1-.11-.2s.06.05.14.17l.38.56c.2.3.41.6.65.88.3.39.63.76.98 1.12a19.6 19.6 0 0 0 8.01 4.88 34.1 34.1 0 0 0 13.91 1.36c5.3-.4 11.05-1.6 17.2-1.92 6.17-.32 12.18.77 16.8 3.57a16.06 16.06 0 0 1 5.44 5.27c1.3 2.02 1.94 4.16 2.72 6 .59 1.7 1.5 3.27 2.68 4.63a8.24 8.24 0 0 0 3.36 2.17c.82.27 1.69.34 2.53.18.62-.1.9-.25.9-.22Z" fill="#455A64"/><path d="M315.82 53.87a5.4 5.4 0 0 0-5.5 4.8l-5.84 60.84c-1.02 8.56 10.17 26.9 19.34 27.91 9.26 1.02 10.17-3.46 11.37-11.56 2-13.54 2.68-18.64 2.67-18.56 0 .08 11.92-.4 16.34-15.3 2.17-7.41 3.46-19.87 4.16-30.1.63-9.21-3.95-21.21-13.18-21.45l-29.36 3.42Z" fill="#FFBE9D"/><path d="M354.33 79.95a1.96 1.96 0 0 1-2.17 1.72 1.9 1.9 0 0 1-1.79-2.02 1.98 1.98 0 0 1 2.17-1.73 1.89 1.89 0 0 1 1.79 2.03ZM355.16 76.01c-.24.28-1.8-.72-3.91-.57-2.12.16-3.61 1.32-3.84 1.08-.11-.1.1-.59.72-1.13a5.42 5.42 0 0 1 6.18-.4c.7.45.95.92.85 1.02ZM335.74 81.05c-.26.25-1.72-.9-3.83-.95-2.12-.05-3.7.97-3.93.73-.1-.13.16-.58.85-1.05a5.35 5.35 0 0 1 6.18.2c.64.5.84 1 .73 1.07ZM339.68 92.24c0-.12 1.34-.17 3.5-.16.54 0 1.06 0 1.2-.39.12-.54.07-1.11-.15-1.63l-1.05-4.34c-1.44-6.1-2.4-11.1-2.16-11.15.24-.06 1.6 4.85 3.05 10.96l.98 4.33c.26.7.26 1.47 0 2.17a1.35 1.35 0 0 1-.98.67c-.31.04-.63.04-.94 0-2.13-.17-3.46-.34-3.45-.46Z" fill="#263238"/><path d="M337.86 117.29c-7.19-.84-14-3.66-19.67-8.14 0 0 3.76 11.14 19.19 11.72l.48-3.58Z" fill="#EB996E"/><path d="M336.03 77.43c-.33.51-2.33-.24-4.81-.51-2.5-.28-4.6-.07-4.81-.65-.09-.28.38-.72 1.3-1.08 1.2-.43 2.49-.57 3.76-.4 1.27.14 2.5.58 3.57 1.28.8.57 1.14 1.12 1 1.36ZM354.84 73.18c-.35.5-1.83.08-3.61.14-1.79.07-3.23.48-3.62 0-.15-.24.06-.72.68-1.21a4.92 4.92 0 0 1 2.89-.94 4.99 4.99 0 0 1 2.89.81c.7.47.92.96.77 1.2Z" fill="#263238"/><path d="M334.57 96.08a4.52 4.52 0 0 1 3.31-.72c.6.08 1.14.36 1.54.8.44.65.63 1.43.54 2.2 0 .47-.06.94-.2 1.38a1.8 1.8 0 0 1-.89 1.04c-.46.16-.97.19-1.44.07-.8-.1-1.56-.38-2.24-.81a2.73 2.73 0 0 1-1.24-1.95 1.86 1.86 0 0 1 1.12-1.92" fill="#EB996E"/><path d="M340.27 100.72c-.15.05-.44-.4-.94-1.04a7.7 7.7 0 0 0-5.25-2.99c-.8-.11-1.33-.12-1.37-.28-.04-.16.47-.43 1.39-.52a6.05 6.05 0 0 1 5.9 3.37c.4.83.4 1.41.27 1.46ZM303.66 115.33c5.02-1 8.9-5.31 10.62-10.11 1.73-4.8 1.63-10.08 1.18-15.17a2.43 2.43 0 0 0-.69-1.8c-.76-.58-1.85-.1-2.67.4a83.41 83.41 0 0 0-9.09 6.38c-2.68 2.17-5.34 4.66-6.37 7.95-1.59 5.05 1.76 11.09 6.88 12.42" fill="#263238"/><path d="M419.07 114.16 395.4 76.1l-6.55-13.4s-2.09-2.77-4.25-5.13c-3.56-3.88-7.08-.87-7.08-.87a2.4 2.4 0 0 0-2.37-1.44 4.04 4.04 0 0 0-3.27 1.67s-.97-1.08-3.66-1.24c-.61-.01-1.2.18-1.7.54-.88-.77-2.5-1.88-4.05-1.32-1.22.44-8.58 6.04-10.4 8.86-.89 1.4.78 3.2 3.01 2.36.93-.3 1.82-.67 2.7-1.1.67-.38 1.29-.87 1.81-1.44 0 0-1.85 3.25 0 3.82a4.25 4.25 0 0 0 3.5-.84c.72-.6 1.5-1.37 2.28-2.13l-.08.13c-1.03 1.52 1.64 3.77 2.94 2.86.6-.43 1.17-.89 1.72-1.38 3 2.17-1.16 4.98-2.92 4.84a53.9 53.9 0 0 0-8.15 0c-1.53.12-2.9.49-3.73 1.33-1 1.03.05 3.18 1.45 3.4 2.59.4 5.9.97 9.34 1.86a393.42 393.42 0 0 1 14.64 4.49l1.03.84 14.4 35.12-24.65 5.22-5.5 31.24 44.5-12.08c10.01-5.28 14.79-18.62 8.71-28.16Z" fill="#FFBE9D"/><path d="M380.59 81.9c-.2-.03-.38-.07-.57-.14l-1.6-.45-5.85-1.74-4.04-1.22c-1.44-.45-3-.91-4.65-1.33a44.29 44.29 0 0 0-5.21-1.08 8.93 8.93 0 0 1-2.83-.51 1.9 1.9 0 0 1-.64-.47 1.2 1.2 0 0 1-.22-.4l-.05-.37a3.7 3.7 0 0 1 .1-1.54c.17-.5.54-.93 1.02-1.18.44-.23.9-.41 1.38-.55a9.3 9.3 0 0 1 2.89-.35c1.87 0 3.64.29 5.33.21.83-.02 1.64-.1 2.45-.23.8-.15 1.54-.35 2.28-.54 1.36-.43 2.79-.6 4.21-.54 1.17.11 2.32.4 3.4.87.81.33 1.6.72 2.37 1.16.63.35 1.1.65 1.44.84.17.1.33.2.48.33a3 3 0 0 1-.52-.26l-1.45-.78a23.2 23.2 0 0 0-2.37-1.1c-1.07-.43-2.2-.7-3.34-.8-1.4-.04-2.79.15-4.11.58-.73.2-1.49.4-2.3.56-.82.15-1.66.24-2.5.26-1.72.08-3.51-.17-5.35-.2a9.06 9.06 0 0 0-2.74.34c-.88.3-1.89.6-2.17 1.5-.12.45-.14.91-.08 1.37l.05.34c.03.08.08.17.14.23.14.16.32.3.51.39a9 9 0 0 0 2.71.47c1.78.27 3.53.64 5.26 1.12 1.66.42 3.2.9 4.65 1.36l4.03 1.27 5.82 1.85 1.58.52c.17.06.33.13.49.21ZM362.33 54.96c.05.06-1.11.72-2.82 2.02-1 .76-1.94 1.58-2.83 2.45-1.01.99-2.07 2.17-3.33 3.22a3.43 3.43 0 0 0-1.33 1.78 1.26 1.26 0 0 0 .87 1.55 3.8 3.8 0 0 0 1.9.04c.57-.11 1.13-.27 1.67-.48a11.93 11.93 0 0 0 2.92-1.78c-.17.26-.4.5-.65.68a8.85 8.85 0 0 1-3.86 1.89c-.68.17-1.4.17-2.08 0a1.6 1.6 0 0 1-1.12-1.96c.24-.8.75-1.51 1.44-2 1.24-1.05 2.3-2.16 3.34-3.17a25.62 25.62 0 0 1 5.88-4.24Z" fill="#EB996E"/><path d="M371.37 57.94c-.26.35-.54.68-.84.99l-2.38 2.61-3.56 3.85a8.8 8.8 0 0 1-2.5 1.91c-.51.26-1.08.4-1.66.41a2.3 2.3 0 0 1-1.66-.66 1.54 1.54 0 0 1-.4-.9c-.02-.32.02-.63.1-.93.17-.57.43-1.1.77-1.58 1.28-1.35 2.46-2.62 3.52-3.8 1.07-1.16 2.13-2.08 2.98-2.88.37-.39.78-.72 1.24-1 .36-.16.76-.24 1.16-.25.64-.05 1.02 0 .98.08a2.96 2.96 0 0 0-.97.05c-.37.03-.74.13-1.09.29-.42.28-.81.62-1.16 1-.82.82-1.84 1.78-2.89 2.93-1.05 1.16-2.23 2.47-3.5 3.84-.31.44-.56.93-.72 1.44-.07.26-.1.53-.09.8.03.25.14.5.3.68.38.36.88.56 1.4.55a3.5 3.5 0 0 0 1.49-.37 8.54 8.54 0 0 0 2.4-1.82l3.62-3.79 2.46-2.53.69-.68.3-.24ZM382.44 61.42s0 .22-.3.43a1.53 1.53 0 0 1-2.22-.39c-.17-.27-.17-.48-.13-.49.05 0 .15.14.33.33.24.24.55.4.89.47.34.05.68 0 1-.15.24-.11.38-.24.43-.2Z" fill="#EB996E"/><path d="M383.3 64.74c-.08.06-.62-.48-1.1-1.3a3 3 0 0 1-.6-1.58c.1-.03.46.62.93 1.4.33.45.6.95.77 1.48ZM384.9 77.65a4.66 4.66 0 0 1-.69-1.5 12.3 12.3 0 0 1 .13-7.88c.15-.54.4-1.04.73-1.49-.61 1.75-.96 3.58-1.05 5.43.03 1.85.32 3.68.88 5.44ZM404.35 127.72c-.07 0-.15-.77-.52-1.95a12.03 12.03 0 0 0-6.18-7.03c-1.11-.53-1.87-.72-1.86-.76.19-.01.37.01.55.07.5.1.98.25 1.44.45a11.13 11.13 0 0 1 6.32 7.2c.14.47.22.96.27 1.45.02.18.02.38-.02.56Z" fill="#EB996E"/><path d="M321.71 197.29a10.28 10.28 0 0 0-6.01.76c-3.22-1.44-7.19 1.04-7.19 1.04-1.16-.56-8.17 4.02-8.17 4.02l-8.72 4.12-46.63-34.64 13.22-13.73-18.52-19.27-21.67 22.33a16.36 16.36 0 0 0-4.34 10.5 21.37 21.37 0 0 0 11.87 20.24l54.91 28.17a64.2 64.2 0 0 0 12.5-1.94c4.73-1.24 12.83-4.83 12.83-4.83s0 .24 1.44 3.05c2.61 5.06 6.44-.4 6.44-.4.38.89.88 1.72 1.48 2.47 3.3 3.2 5.6-1.1 5.6-1.1s.99 1.73 3.93.44c2.95-1.28-.42-10.16-.42-10.16s.99 1.93 2.89-.51c1.9-2.44-2.28-9.9-5.44-10.56Z" fill="#FFBE9D"/><path d="M315.12 198.5c.18-.12.39-.2.6-.23a3.6 3.6 0 0 1 1.77.06c.85.24 1.65.64 2.34 1.19.42.31.8.66 1.16 1.03.36.45.67.93.91 1.45a35.04 35.04 0 0 1 2.59 7.03c.07.21.1.43.1.64-.06 0-.32-.86-.8-2.24a49.72 49.72 0 0 0-2.23-5.27 6.42 6.42 0 0 0-.85-1.33c-.34-.37-.7-.7-1.1-1a7.15 7.15 0 0 0-2.16-1.22 4.83 4.83 0 0 0-2.33-.1ZM320.73 218.1c-.17-.25-.3-.52-.41-.8l-1.02-2.21c-.86-1.87-2.12-4.43-3.32-7.34a19.48 19.48 0 0 0-1.9-3.95 6.5 6.5 0 0 0-2.68-2.24 4.33 4.33 0 0 0-2.3-.4c-.57.06-.86.22-.88.18 0-.03.07-.05.2-.12.2-.1.42-.17.64-.21a4.25 4.25 0 0 1 2.45.3 6.63 6.63 0 0 1 2.86 2.3c.8 1.24 1.47 2.59 1.96 4 1.2 2.88 2.41 5.47 3.22 7.37.4.95.72 1.73.9 2.26.13.28.22.57.28.86ZM299.33 206.95c.23-.16.47-.3.72-.4l2.08-1.01c.45-.21.92-.44 1.45-.67a4.1 4.1 0 0 1 3.84.44 6.18 6.18 0 0 1 1.44 1.7c.4.66.72 1.33 1.01 1.95.3.62.63 1.22.95 1.79.63 1.12 1.22 2.12 1.65 3 .36.7.67 1.4.93 2.13a3 3 0 0 1 .23.82c-.06 0-.45-1.12-1.39-2.82-.47-.86-1.07-1.84-1.73-2.96-.32-.56-.64-1.16-.96-1.8-.32-.62-.62-1.28-1-1.9-.36-.62-.8-1.16-1.34-1.62a3.64 3.64 0 0 0-3.5-.5c-.52.2-1.02.44-1.45.62l-2.13.96c-.25.12-.52.22-.8.27ZM300.34 203.12c-.19.16-.4.3-.63.4l-1.8.97a427.81 427.81 0 0 1-12.06 6.08l-1.85.87c-.23.12-.47.21-.72.27.2-.16.41-.3.64-.4a372.2 372.2 0 0 1 13.85-7.04c.78-.39 1.45-.68 1.86-.88.22-.13.46-.22.71-.27ZM245.62 172.67a23.59 23.59 0 0 0-5.5-.18c-1.83.28-3.62.76-5.33 1.45.44-.35.93-.62 1.45-.81a13.83 13.83 0 0 1 7.8-.92c.55.06 1.08.22 1.58.46Z" fill="#EB996E"/><path d="M348.57 47.53a145.2 145.2 0 0 0-34.33 3.61c-2.6.6-5.37 1.37-7.13 3.38-1.87 2.12-2.17 5.15-2.44 7.94l-.9 10.3c-.5.85-1.04 1.67-1.64 2.45-2.71 3.54-6.17 6.5-8.67 10.23-2.49 3.73-3.83 8.67-1.82 12.65 1.22 2.42 3.47 4.12 5.12 6.26 2.8 3.61 3.7 8.32 5.34 12.6 1.63 4.28 4.58 8.67 9.08 9.5 2.17.42 4.38-.03 6.54.28 3.23.47 5.94 2.59 8.5 4.6 2.57 2.02 5.36 4.07 8.61 4.4 3.25.32 6.98-1.88 7.04-5.15a7.63 7.63 0 0 1-7.85-.21c-1.9-1.25-3.12-3.28-4.74-4.85-4-3.87-10.43-5.1-13.2-9.92-2.18-3.8-1.33-8.58-.33-12.87.86-3.71 1.74-7.73.66-11.3.09-.58.13-1.16.14-1.74 0-3.8-1.48-7.87.29-11.23 2.34-4.45 9.09-5.02 11.45-9.44 1.38-2.58.9-5.88 2.4-8.39 1.4-2.35 4.23-3.43 6.92-4.02 2.69-.58 5.51-.85 7.88-2.24 2.37-1.39 4.16-4.32 3.08-6.84Z" fill="#263238"/><path d="M357.33 125.04a.73.73 0 0 1-.1.18l-.36.5a10.02 10.02 0 0 1-4.96 3.45c-1.58.55-3.26.75-4.92.57-2.02-.2-3.95-.98-5.53-2.27-1.72-1.32-3.25-3.07-5.2-4.47a7.5 7.5 0 0 0-3.3-1.4 7.22 7.22 0 0 0-3.69.68c-1.22.58-2.5 1.02-3.82 1.31a6.71 6.71 0 0 1-4.12-.72 20.76 20.76 0 0 1-3.47-2.3c-1.08-.81-2.1-1.7-3.05-2.65a9.53 9.53 0 0 1-2.17-3.27 6.76 6.76 0 0 1-.25-3.76c.27-1.16.63-2.29 1.1-3.38a42.1 42.1 0 0 0 2.74-19.88c0-.26 0-.45-.06-.61a.67.67 0 0 1 0-.21c.03.06.04.13.05.2l.08.6a41.02 41.02 0 0 1-2.5 20.04 20.26 20.26 0 0 0-1.07 3.3 6.35 6.35 0 0 0 .24 3.57 9.22 9.22 0 0 0 2.1 3.14c.94.94 1.94 1.8 3.01 2.6 1.06.87 2.2 1.63 3.41 2.27 1.19.65 2.55.9 3.9.72 1.29-.3 2.54-.73 3.74-1.3 1.2-.55 2.54-.79 3.86-.67 1.26.19 2.45.69 3.47 1.44 1.98 1.45 3.5 3.2 5.19 4.52a10.06 10.06 0 0 0 5.37 2.24c2.87.32 5.75-.45 8.09-2.16.83-.67 1.57-1.43 2.22-2.28Z" fill="#263238"/><path d="M285.15 102.07a8.17 8.17 0 0 1-1.6-3.43c-.29-1.48-.26-3 .07-4.47a13.73 13.73 0 0 1 2.5-5.36 24.96 24.96 0 0 1 5.21-4.93c2.08-1.54 4.43-2.98 6.78-4.65 2.5-1.68 4.68-3.8 6.43-6.25.86-1.34 1.52-2.8 1.95-4.33.46-1.55.78-3.17 1.16-4.8.32-1.63.8-3.22 1.44-4.75.64-1.51 1.6-2.85 2.84-3.93 1.2-1.01 2.6-1.78 4.1-2.26 1.42-.46 2.9-.75 4.39-.87 2.75-.13 5.5-.05 8.24.26 2.36.26 4.75.29 7.12.1 1.95-.19 3.85-.75 5.59-1.66a11.06 11.06 0 0 0 3.41-2.76 8.32 8.32 0 0 0 1.39-2.42c.2-.61.28-.94.3-.94a7.03 7.03 0 0 1-1.57 3.45 11.22 11.22 0 0 1-3.43 2.9 15.33 15.33 0 0 1-5.66 1.73c-2.4.21-4.8.2-7.18-.05-2.72-.3-5.45-.37-8.18-.22-1.47.11-2.93.4-4.34.86-1.45.46-2.8 1.2-3.97 2.17a10.43 10.43 0 0 0-2.74 3.8 24.88 24.88 0 0 0-1.44 4.7c-.38 1.62-.72 3.24-1.17 4.81a16.03 16.03 0 0 1-2 4.4 25.1 25.1 0 0 1-6.5 6.34c-2.38 1.67-4.73 3.1-6.8 4.62a24.73 24.73 0 0 0-5.19 4.84 13.34 13.34 0 0 0-2.5 5.24c-.35 1.44-.4 2.93-.14 4.39a9.2 9.2 0 0 0 1.49 3.47Z" fill="#455A64"/><path d="M287.27 105.86a15.9 15.9 0 0 1-2.22-2.13 9.9 9.9 0 0 1-1.93-3.06 4.49 4.49 0 0 1 .64-4.62c1.17-1.45 3.1-2.21 5.14-2.64 1.02-.2 2.09-.37 3.15-.64a8.96 8.96 0 0 0 3.08-1.28c.94-.7 1.71-1.6 2.24-2.65a24.4 24.4 0 0 0 1.38-3.45c.39-1.24.87-2.45 1.45-3.61a7.66 7.66 0 0 1 2.7-3 13.3 13.3 0 0 1 3.77-1.44c1.28-.34 2.54-.6 3.74-1 2.3-.8 4.29-2.28 5.73-4.23a43.85 43.85 0 0 0 3.6-5.59c.92-1.7 2-3.3 3.24-4.8a12.34 12.34 0 0 1 3.7-3.03 9.35 9.35 0 0 1 3.46-1.05 6.5 6.5 0 0 1 3.01.45l-.77-.19c-.74-.16-1.5-.2-2.25-.11a9.45 9.45 0 0 0-3.37 1.08 12.29 12.29 0 0 0-3.62 3.01 32 32 0 0 0-3.18 4.8 43.45 43.45 0 0 1-3.55 5.63 15.1 15.1 0 0 1-2.55 2.58 11.1 11.1 0 0 1-3.3 1.75c-1.21.41-2.5.68-3.76 1.01-1.28.3-2.52.78-3.65 1.45-1.11.71-2 1.71-2.59 2.89a24.06 24.06 0 0 0-1.44 3.56c-.4 1.2-.88 2.37-1.45 3.49a7.95 7.95 0 0 1-2.36 2.77 9.57 9.57 0 0 1-3.2 1.32c-1.08.26-2.16.42-3.16.63-2 .4-3.89 1.15-5 2.49-.52.63-.84 1.4-.94 2.23-.07.73.03 1.47.29 2.16a10.27 10.27 0 0 0 1.84 3.04c.64.72 1.18 1.3 1.55 1.66l.43.41c.1.05.15.1.15.1Z" fill="#455A64"/><path d="M376.2 59.19c-.1.2-.22.39-.37.55-.26.35-.65.84-1.14 1.45a68.5 68.5 0 0 1-4.07 4.44c-.82.81-1.6 1.72-2.65 2.05-.5.17-1.04.17-1.53 0-.42-.17-.77-.5-.98-.9a2.93 2.93 0 0 1-.27-1.83c.01-.23.07-.45.17-.65.02.22.02.44 0 .66-.06.59.07 1.17.35 1.7.2.32.5.58.86.71.43.15.89.15 1.3 0 .93-.3 1.68-1.16 2.5-1.98 1.66-1.66 3.1-3.22 4.14-4.34.52-.66 1.09-1.28 1.7-1.86Z" fill="#EB996E"/><path d="M381.72 59.19a46.17 46.17 0 0 1-1.73 2l-1.94 2.1-1.16 1.24c-.4.46-.83.88-1.3 1.27-.52.4-1.13.65-1.77.72a1.8 1.8 0 0 1-1.64-.72 1.45 1.45 0 0 1-.27-.84c.02-.27.1-.54.25-.77.26-.44.54-.77.78-1.1.47-.66.87-1.19 1.15-1.55.13-.2.3-.38.47-.53-.09.22-.2.43-.35.62-.24.38-.6.93-1.06 1.61-.22.34-.5.72-.72 1.1a1.07 1.07 0 0 0 0 1.26 1.45 1.45 0 0 0 1.34.55 3.05 3.05 0 0 0 1.56-.64c.47-.36.9-.76 1.3-1.2l1.18-1.21 2-2.06a72.54 72.54 0 0 1 1.91-1.85Z" fill="#EB996E"/><path fill-rule="evenodd" clip-rule="evenodd" d="M509.86 38.63a3.26 3.26 0 1 0-1.92-6.23 3.26 3.26 0 0 0 1.92 6.23Zm.17.54a3.82 3.82 0 1 0-2.26-7.3 3.82 3.82 0 0 0 2.26 7.3Z" fill="url(#j)"/><path fill-rule="evenodd" clip-rule="evenodd" d="m408.66 40.34 21.08-3.39a8.05 8.05 0 0 0-2.56-15.9l-21.07 3.38a8.05 8.05 0 0 0 2.55 15.9Zm28.64-12.76a8.96 8.96 0 0 0-10.26-7.42l-21.08 3.38a8.96 8.96 0 1 0 2.84 17.69l21.08-3.39a8.96 8.96 0 0 0 7.42-10.26Z" fill="#6DCFA8" stroke="#6DCFA8"/><path fill-rule="evenodd" clip-rule="evenodd" d="m418.3 38.79-2.54-15.9-9.65 1.54a8.05 8.05 0 1 0 2.55 15.9l9.65-1.54Zm-1.8-16.94-10.54 1.7a8.96 8.96 0 0 0 2.84 17.68l10.54-1.7-2.84-17.68Z" fill="#6DCFA8" stroke="#6DCFA8"/><path fill-rule="evenodd" clip-rule="evenodd" d="M87.23 227.32a3.88 3.88 0 1 1 5.46-5.5 3.88 3.88 0 0 1-5.46 5.5Zm-.87.87a5.1 5.1 0 1 1 7.2-7.23 5.1 5.1 0 0 1-7.2 7.23Z" fill="#BAD1E6" stroke="#6DCFA8"/><path fill-rule="evenodd" clip-rule="evenodd" d="m52.41 278.85 16.16-9.33a7.03 7.03 0 1 0-7.04-12.18l-16.15 9.33a7.03 7.03 0 0 0 7.03 12.18Zm19.42-19.33a7.83 7.83 0 0 0-10.7-2.87l-16.15 9.33a7.83 7.83 0 1 0 7.83 13.56l16.16-9.33a7.83 7.83 0 0 0 2.86-10.7Z" fill="#BAD1E6" stroke="#BAD1E6"/><path fill-rule="evenodd" clip-rule="evenodd" d="m59.8 274.58-7.03-12.18-7.4 4.27a7.03 7.03 0 0 0 7.04 12.18l7.4-4.27Zm-6.74-13.27-8.08 4.67a7.83 7.83 0 1 0 7.83 13.56l8.08-4.67-7.83-13.56Z" fill="#BAD1E6" stroke="#BAD1E6"/><path fill-rule="evenodd" clip-rule="evenodd" d="m32.77 85.24-5.33 16.65a6.6 6.6 0 1 0 12.55 4.02l5.34-16.64a6.6 6.6 0 1 0-12.56-4.03Zm-1.3 25.64a7.33 7.33 0 0 0 9.22-4.74l5.34-16.64a7.33 7.33 0 0 0-13.96-4.48l-5.34 16.64a7.33 7.33 0 0 0 4.75 9.22Z" fill="#0062F4" stroke="#0062F4"/><path fill-rule="evenodd" clip-rule="evenodd" d="m30.33 92.86 12.56 4.03 2.44-7.62a6.6 6.6 0 0 0-12.56-4.03l-2.44 7.62Zm13.03 4.96 2.67-8.32a7.33 7.33 0 0 0-13.96-4.48l-2.67 8.32 13.96 4.48Z" fill="#0062F4" stroke="#0062F4"/><ellipse rx="4.53" ry="4.36" transform="matrix(-.66671 -.74531 -.74875 .66286 251.6 27.23)" stroke="#6DCFA8" stroke-width="2"/><ellipse rx="7.19" ry="6.93" transform="matrix(-.66671 -.74531 -.74875 .66286 520.76 234.5)" stroke="#BAD1E6" stroke-width="2"/><g opacity=".44"><ellipse rx="2.42" ry="2.33" transform="matrix(-.66671 -.74531 -.74875 .66286 64.36 42.49)" fill="#BAD1E6"/><path d="M59.4 36.94a7.26 7.26 0 0 0-.4 10.3c2.75 3.07 7.37 3.4 10.32.8a7.26 7.26 0 0 0 .4-10.3c-2.75-3.08-7.38-3.41-10.33-.8Z" stroke="#BAD1E6"/></g><path fill-rule="evenodd" clip-rule="evenodd" d="m230.77 280.96-21.7-5.82a8.47 8.47 0 1 0-4.39 16.37l21.7 5.81a8.47 8.47 0 1 0 4.4-16.36Zm-33-.08a9.43 9.43 0 0 0 6.67 11.55l21.7 5.81a9.43 9.43 0 1 0 4.88-18.2l-21.7-5.82a9.43 9.43 0 0 0-11.55 6.66Z" fill="#0062F4" stroke="#0062F4"/><path fill-rule="evenodd" clip-rule="evenodd" d="m220.84 278.3-4.38 16.36 9.93 2.66a8.47 8.47 0 0 0 4.38-16.36l-9.93-2.66Zm-5.55 17.04 10.85 2.9a9.43 9.43 0 0 0 4.88-18.2l-10.85-2.91-4.88 18.2Z" fill="#0062F4" stroke="#0062F4"/><ellipse rx="3.08" ry="2.96" transform="matrix(-.66671 -.74531 -.74875 .66286 523.67 156.28)" stroke="#0062F4" stroke-width="2"/><defs><radialGradient id="a" cx="0" cy="0" r="1" gradientUnits="userSpaceOnUse" gradientTransform="rotate(-21.4 570.42 -1123.58) scale(68.1468 948.723)"><stop stop-color="#FEF3FA"/><stop offset=".45" stop-color="#EEF0FF"/><stop offset="1" stop-color="#D6E4FF"/></radialGradient><radialGradient id="b" cx="0" cy="0" r="1" gradientUnits="userSpaceOnUse" gradientTransform="matrix(-.25979 -30.29599 377.07614 -3.23343 150 34.77)"><stop stop-color="#FEF3FA"/><stop offset=".45" stop-color="#EEF0FF"/><stop offset="1" stop-color="#E5E6FD"/></radialGradient><radialGradient id="c" cx="0" cy="0" r="1" gradientUnits="userSpaceOnUse" gradientTransform="rotate(-130.55 239.34 65.1) scale(315.885 4038.47)"><stop stop-color="#FEF3FA"/><stop offset=".45" stop-color="#EEF0FF"/><stop offset="1" stop-color="#D6E4FF"/></radialGradient><radialGradient id="d" cx="0" cy="0" r="1" gradientUnits="userSpaceOnUse" gradientTransform="matrix(-31.41133 18.09516 -225.21981 -390.95838 427.47 260.28)"><stop stop-color="#FEF3FA"/><stop offset=".45" stop-color="#EEF0FF"/><stop offset="1" stop-color="#E5E6FD"/></radialGradient><radialGradient id="e" cx="0" cy="0" r="1" gradientUnits="userSpaceOnUse" gradientTransform="matrix(51.37945 -71.2294 857.78872 618.74323 403.7 290.2)"><stop stop-color="#FEF3FA"/><stop offset=".6" stop-color="#EEF0FF"/><stop offset="1" stop-color="#E5E6FD"/></radialGradient><radialGradient id="j" cx="0" cy="0" r="1" gradientUnits="userSpaceOnUse" gradientTransform="rotate(-151.93 263.28 -44.7) scale(8.5 103.958)"><stop stop-color="#FEF3FA"/><stop offset=".45" stop-color="#EEF0FF"/><stop offset="1" stop-color="#D6E4FF"/></radialGradient><linearGradient id="f" x1="302.81" y1="74.1" x2="231.03" y2="106" gradientUnits="userSpaceOnUse"><stop stop-color="#06F"/><stop offset="1" stop-color="#005BE4"/></linearGradient><linearGradient id="g" x1="151.08" y1="79.03" x2="75.22" y2="117.13" gradientUnits="userSpaceOnUse"><stop stop-color="#06F"/><stop offset="1" stop-color="#005BE4"/></linearGradient><linearGradient id="h" x1="466.84" y1="78.49" x2="390.5" y2="116.92" gradientUnits="userSpaceOnUse"><stop stop-color="#06F"/><stop offset="1" stop-color="#005BE4"/></linearGradient><linearGradient id="i" x1="287.86" y1="120.47" x2="289.34" y2="210.36" gradientUnits="userSpaceOnUse"><stop offset=".23" stop-color="#B4D2FF"/><stop offset="1" stop-color="#73ABFF"/></linearGradient></defs></svg>